<svg width="68" height="68" viewBox="0 0 68 68" fill="none" xmlns="http://www.w3.org/2000/svg">
<g filter="url(#filter0_d_143_5)">
<path d="M5.84122 28.5714C4.82434 28.5714 3.99382 27.746 4.05927 26.7313C4.5047 19.8254 7.44558 13.2912 12.3684 8.36838C17.2912 3.44558 23.8254 0.504695 30.7313 0.0592694C31.746 -0.00618303 32.5714 0.824343 32.5714 1.84122C32.5714 2.8581 31.7459 3.67535 30.7318 3.75047C24.8035 4.18961 19.2043 6.7402 14.9723 10.9723C10.7402 15.2043 8.18961 20.8035 7.75047 26.7318C7.67535 27.7459 6.8581 28.5714 5.84122 28.5714Z" fill="#F3BC18"/>
<path d="M32.5714 58.1588C32.5714 59.1757 31.746 60.0062 30.7313 59.9408C23.8254 59.4953 17.2912 56.5545 12.3684 51.6317C7.4456 46.7089 4.50471 40.1747 4.05927 33.2688C3.99382 32.2541 4.82434 31.4287 5.84122 31.4286C6.8581 31.4286 7.67535 32.2541 7.75047 33.2682C8.18962 39.1965 10.7402 44.7957 14.9723 49.0278C19.2043 53.2598 24.8035 55.8104 30.7318 56.2496C31.7459 56.3247 32.5714 57.1419 32.5714 58.1588Z" fill="#48AADF"/>
<path d="M62.1588 31.4286C63.1757 31.4286 64.0062 32.2538 63.9407 33.2686C63.7392 36.3912 63.0258 39.4638 61.8252 42.3624C60.3893 45.8289 58.2848 48.9786 55.6317 51.6317C52.9786 54.2848 49.8289 56.3893 46.3624 57.8252C43.4638 59.0258 40.3912 59.7392 37.2686 59.9407C36.2538 60.0062 35.4286 59.1757 35.4286 58.1588C35.4286 57.1419 36.2541 56.3247 37.2682 56.2495C39.9068 56.054 42.5015 55.4386 44.9532 54.423C47.9729 53.1722 50.7166 51.3389 53.0278 49.0278C55.3389 46.7166 57.1722 43.9729 58.423 40.9532C59.4386 38.5015 60.054 35.9068 60.2495 33.2682C60.3247 32.2541 61.1419 31.4286 62.1588 31.4286Z" fill="white"/>
<path d="M35.4286 1.84122C35.4286 0.824343 36.254 -0.00618302 37.2688 0.0592695C44.1746 0.504695 50.7089 3.44557 55.6316 8.36837C60.5544 13.2912 63.4953 19.8254 63.9408 26.7312C64.0062 27.746 63.1757 28.5714 62.1588 28.5714C61.1419 28.5714 60.3247 27.7459 60.2496 26.7318C59.8104 20.8035 57.2598 15.2043 53.0278 10.9722C48.7957 6.7402 43.1965 4.18961 37.2682 3.75047C36.2541 3.67535 35.4286 2.8581 35.4286 1.84122Z" fill="#4078BC"/>
</g>
<g filter="url(#filter1_d_143_5)">
<path d="M26.26 38.608C25.272 38.608 24.2967 38.4433 23.334 38.114C22.3713 37.81 21.472 37.354 20.636 36.746C19.8 36.1127 19.0527 35.34 18.394 34.428C17.7607 33.516 17.292 32.4647 16.988 31.274L19.268 30.324C19.496 31.1853 19.8253 31.9833 20.256 32.718C20.712 33.4527 21.244 34.086 21.852 34.618C22.46 35.15 23.144 35.568 23.904 35.872C24.664 36.1507 25.4747 36.29 26.336 36.29C27.172 36.29 27.97 36.176 28.73 35.948C29.49 35.6947 30.1487 35.34 30.706 34.884C31.2887 34.4027 31.7447 33.8327 32.074 33.174C32.4033 32.49 32.568 31.73 32.568 30.894C32.568 29.45 32.036 28.2847 30.972 27.398C29.908 26.486 28.3627 25.6753 26.336 24.966L24.626 24.358C23.8153 24.0793 23.0173 23.75 22.232 23.37C21.4467 22.9647 20.7373 22.4833 20.104 21.926C19.496 21.3687 19.002 20.71 18.622 19.95C18.242 19.1647 18.052 18.2527 18.052 17.214C18.052 16.2767 18.242 15.3773 18.622 14.516C19.0273 13.6547 19.5847 12.9073 20.294 12.274C21.0033 11.6407 21.852 11.134 22.84 10.754C23.828 10.374 24.9047 10.184 26.07 10.184C27.3113 10.184 28.4007 10.374 29.338 10.754C30.2753 11.1087 31.0733 11.5647 31.732 12.122C32.416 12.654 32.948 13.2367 33.328 13.87C33.7333 14.5033 34.0247 15.086 34.202 15.618L31.922 16.568C31.7953 16.112 31.58 15.656 31.276 15.2C30.9973 14.7187 30.6173 14.2753 30.136 13.87C29.6547 13.4647 29.0847 13.1353 28.426 12.882C27.7673 12.6287 26.9947 12.502 26.108 12.502C25.348 12.502 24.626 12.616 23.942 12.844C23.2833 13.072 22.688 13.4013 22.156 13.832C21.6493 14.2373 21.244 14.7313 20.94 15.314C20.6613 15.8967 20.522 16.53 20.522 17.214C20.522 17.8727 20.6487 18.4553 20.902 18.962C21.1807 19.4433 21.5607 19.8867 22.042 20.292C22.5233 20.672 23.0933 21.0267 23.752 21.356C24.4107 21.66 25.1327 21.9513 25.918 22.23L27.666 22.876C28.6793 23.2307 29.6293 23.636 30.516 24.092C31.428 24.548 32.2133 25.0927 32.872 25.726C33.5307 26.334 34.05 27.056 34.43 27.892C34.8353 28.728 35.038 29.6907 35.038 30.78C35.038 32.148 34.772 33.326 34.24 34.314C33.708 35.302 33.024 36.1127 32.188 36.746C31.352 37.3793 30.402 37.848 29.338 38.152C28.2993 38.456 27.2733 38.608 26.26 38.608Z" fill="white"/>
<path d="M23.334 38.114L23.6577 37.1678L23.6465 37.164L23.6351 37.1604L23.334 38.114ZM20.636 36.746L20.0321 37.5431L20.0399 37.549L20.0478 37.5547L20.636 36.746ZM18.394 34.428L17.5726 34.9984L17.5779 35.006L17.5833 35.0135L18.394 34.428ZM16.988 31.274L16.6034 30.3509L15.8052 30.6835L16.0191 31.5214L16.988 31.274ZM19.268 30.324L20.2347 30.0681L19.9414 28.9601L18.8834 29.4009L19.268 30.324ZM20.256 32.718L19.3933 33.2237L19.3997 33.2346L19.4064 33.2454L20.256 32.718ZM21.852 34.618L22.5105 33.8654L22.5105 33.8654L21.852 34.618ZM23.904 35.872L23.5326 36.8005L23.5461 36.8059L23.5597 36.8109L23.904 35.872ZM28.73 35.948L29.0173 36.9058L29.0319 36.9015L29.0462 36.8967L28.73 35.948ZM30.706 34.884L31.3392 35.658L31.3429 35.655L30.706 34.884ZM32.074 33.174L32.9684 33.6212L32.9718 33.6145L32.975 33.6078L32.074 33.174ZM30.972 27.398L30.3211 28.1573L30.3318 28.1662L30.972 27.398ZM26.336 24.966L26.001 25.9082L26.0057 25.9099L26.336 24.966ZM24.626 24.358L24.961 23.4157L24.9511 23.4123L24.626 24.358ZM22.232 23.37L21.7734 24.2586L21.7848 24.2645L21.7964 24.2702L22.232 23.37ZM20.104 21.926L19.4283 22.6632L19.4358 22.67L19.4434 22.6767L20.104 21.926ZM18.622 19.95L17.7218 20.3856L17.7276 20.3972L18.622 19.95ZM18.622 14.516L17.7172 14.0902L17.712 14.1012L17.7071 14.1124L18.622 14.516ZM20.294 12.274L19.628 11.5281L19.628 11.5281L20.294 12.274ZM22.84 10.754L23.199 11.6873L23.199 11.6873L22.84 10.754ZM29.338 10.754L28.9623 11.6807L28.9732 11.6851L28.9841 11.6893L29.338 10.754ZM31.732 12.122L31.0861 12.8854L31.1018 12.8987L31.1181 12.9113L31.732 12.122ZM33.328 13.87L32.4705 14.3845L32.4779 14.3969L32.4857 14.4091L33.328 13.87ZM34.202 15.618L34.5866 16.5411L35.4446 16.1836L35.1507 15.3018L34.202 15.618ZM31.922 16.568L30.9585 16.8356L31.2615 17.9265L32.3066 17.4911L31.922 16.568ZM31.276 15.2L30.4106 15.701L30.4264 15.7284L30.444 15.7547L31.276 15.2ZM30.136 13.87L30.7801 13.1051L30.7801 13.1051L30.136 13.87ZM23.942 12.844L23.6258 11.8953L23.6149 11.899L23.942 12.844ZM22.156 13.832L22.7807 14.6129L22.7852 14.6092L22.156 13.832ZM20.94 15.314L20.0534 14.8514L20.0454 14.8669L20.0379 14.8825L20.94 15.314ZM20.902 18.962L20.0076 19.4092L20.0213 19.4366L20.0366 19.463L20.902 18.962ZM22.042 20.292L21.3979 21.0569L21.41 21.0671L21.4224 21.0769L22.042 20.292ZM23.752 21.356L23.3048 22.2504L23.3188 22.2574L23.3329 22.264L23.752 21.356ZM25.918 22.23L26.2647 21.2919L26.2524 21.2876L25.918 22.23ZM27.666 22.876L27.3194 23.814L27.3275 23.817L27.3356 23.8199L27.666 22.876ZM30.516 24.092L30.0586 24.9813L30.0688 24.9864L30.516 24.092ZM32.872 25.726L32.1789 26.4468L32.1862 26.4539L32.1937 26.4608L32.872 25.726ZM34.43 27.892L33.5196 28.3058L33.5248 28.3171L33.5302 28.3283L34.43 27.892ZM34.24 34.314L33.3595 33.8399L33.3595 33.8399L34.24 34.314ZM32.188 36.746L32.7919 37.5431L32.7919 37.5431L32.188 36.746ZM29.338 38.152L29.0633 37.1905L29.0571 37.1923L29.338 38.152ZM26.26 37.608C25.3854 37.608 24.5193 37.4626 23.6577 37.1678L23.0103 39.0602C24.074 39.4241 25.1586 39.608 26.26 39.608V37.608ZM23.6351 37.1604C22.7778 36.8897 21.975 36.4834 21.2242 35.9373L20.0478 37.5547C20.969 38.2246 21.9649 38.7303 23.0329 39.0676L23.6351 37.1604ZM21.2399 35.9489C20.4884 35.3797 19.8095 34.6799 19.2047 33.8425L17.5833 35.0135C18.2958 36.0001 19.1116 36.8457 20.0321 37.5431L21.2399 35.9489ZM19.2154 33.8576C18.657 33.0535 18.2345 32.114 17.9569 31.0266L16.0191 31.5214C16.3495 32.8154 16.8644 33.9785 17.5726 34.9984L19.2154 33.8576ZM17.3726 32.1971L19.6526 31.2471L18.8834 29.4009L16.6034 30.3509L17.3726 32.1971ZM18.3013 30.5799C18.5514 31.5248 18.9147 32.4073 19.3933 33.2237L21.1187 32.2123C20.7359 31.5593 20.4406 30.8459 20.2347 30.0681L18.3013 30.5799ZM19.4064 33.2454C19.9109 34.0582 20.5059 34.769 21.1935 35.3706L22.5105 33.8654C21.9821 33.403 21.5131 32.8471 21.1056 32.1906L19.4064 33.2454ZM21.1935 35.3706C21.8877 35.978 22.6691 36.4551 23.5326 36.8005L24.2754 34.9435C23.6189 34.6809 23.0323 34.322 22.5105 33.8654L21.1935 35.3706ZM23.5597 36.8109C24.4369 37.1325 25.3648 37.29 26.336 37.29V35.29C25.5845 35.29 24.8911 35.1688 24.2483 34.9331L23.5597 36.8109ZM26.336 37.29C27.2641 37.29 28.1592 37.1633 29.0173 36.9058L28.4427 34.9902C27.7808 35.1887 27.0799 35.29 26.336 35.29V37.29ZM29.0462 36.8967C29.9087 36.6092 30.6777 36.1992 31.3392 35.658L30.0728 34.11C29.6196 34.4808 29.0713 34.7801 28.4138 34.9993L29.0462 36.8967ZM31.3429 35.655C32.0301 35.0872 32.5751 34.4079 32.9684 33.6212L31.1796 32.7268C30.9142 33.2574 30.5472 33.7181 30.0691 34.113L31.3429 35.655ZM32.975 33.6078C33.3759 32.7753 33.568 31.8648 33.568 30.894H31.568C31.568 31.5952 31.4308 32.2047 31.173 32.7402L32.975 33.6078ZM33.568 30.894C33.568 29.1677 32.9151 27.7155 31.6122 26.6298L30.3318 28.1662C31.1569 28.8538 31.568 29.7323 31.568 30.894H33.568ZM31.6228 26.6387C30.428 25.6146 28.7545 24.753 26.6664 24.0221L26.0057 25.9099C27.9709 26.5977 29.388 27.3574 30.3212 28.1573L31.6228 26.6387ZM26.671 24.0238L24.961 23.4158L24.291 25.3002L26.001 25.9082L26.671 24.0238ZM24.9511 23.4123C24.1788 23.1468 23.4176 22.8328 22.6676 22.4698L21.7964 24.2702C22.617 24.6672 23.4519 25.0118 24.3009 25.3037L24.9511 23.4123ZM22.6906 22.4814C21.9746 22.1118 21.3337 21.676 20.7646 21.1753L19.4434 22.6767C20.141 23.2906 20.9188 23.8175 21.7734 24.2586L22.6906 22.4814ZM20.7797 21.1888C20.2644 20.7165 19.8435 20.157 19.5164 19.5028L17.7276 20.3972C18.1605 21.263 18.7276 22.0208 19.4283 22.6632L20.7797 21.1888ZM19.5222 19.5144C19.2192 18.8884 19.052 18.1303 19.052 17.214H17.052C17.052 18.3751 17.2648 19.441 17.7218 20.3856L19.5222 19.5144ZM19.052 17.214C19.052 16.4163 19.2128 15.6544 19.5369 14.9196L17.7071 14.1124C17.2712 15.1003 17.052 16.137 17.052 17.214H19.052ZM19.5268 14.9418C19.875 14.202 20.3511 13.5636 20.96 13.0199L19.628 11.5281C18.8182 12.2511 18.1797 13.1073 17.7172 14.0902L19.5268 14.9418ZM20.96 13.0199C21.5695 12.4757 22.3111 12.0288 23.199 11.6873L22.481 9.82065C21.3929 10.2392 20.4371 10.8056 19.628 11.5281L20.96 13.0199ZM23.199 11.6873C24.0614 11.3556 25.015 11.184 26.07 11.184V9.184C24.7943 9.184 23.5946 9.39236 22.481 9.82065L23.199 11.6873ZM26.07 11.184C27.211 11.184 28.1681 11.3588 28.9623 11.6807L29.7137 9.82726C28.6333 9.38924 27.4117 9.184 26.07 9.184V11.184ZM28.9841 11.6893C29.8319 12.0101 30.527 12.4124 31.0861 12.8854L32.3779 11.3586C31.6196 10.717 30.7188 10.2073 29.6919 9.81871L28.9841 11.6893ZM31.1181 12.9113C31.7212 13.3804 32.164 13.8737 32.4705 14.3845L34.1855 13.3555C33.732 12.5997 33.1108 11.9276 32.3459 11.3326L31.1181 12.9113ZM32.4857 14.4091C32.8606 14.9948 33.1092 15.502 33.2533 15.9342L35.1507 15.3018C34.9401 14.67 34.6061 14.0119 34.1703 13.3309L32.4857 14.4091ZM33.8174 14.6949L31.5374 15.6449L32.3066 17.4911L34.5866 16.5411L33.8174 14.6949ZM32.8855 16.3004C32.7264 15.7276 32.4617 15.1758 32.1081 14.6453L30.444 15.7547C30.6983 16.1362 30.8642 16.4964 30.9585 16.8356L32.8855 16.3004ZM32.1414 14.699C31.7977 14.1053 31.3384 13.5752 30.7801 13.1051L29.4919 14.6349C29.8962 14.9754 30.1969 15.332 30.4106 15.701L32.1414 14.699ZM30.7801 13.1051C30.2041 12.62 29.5349 12.2371 28.785 11.9487L28.067 13.8153C28.6344 14.0336 29.1052 14.3093 29.4919 14.6349L30.7801 13.1051ZM28.785 11.9487C27.9866 11.6416 27.0872 11.502 26.108 11.502V13.502C26.9022 13.502 27.5481 13.6158 28.067 13.8153L28.785 11.9487ZM26.108 11.502C25.2464 11.502 24.4171 11.6315 23.6258 11.8953L24.2582 13.7927C24.8349 13.6005 25.4496 13.502 26.108 13.502V11.502ZM23.6149 11.899C22.8486 12.1643 22.1507 12.5497 21.5268 13.0548L22.7852 14.6092C23.2253 14.2529 23.7181 13.9797 24.2691 13.789L23.6149 11.899ZM21.5313 13.0511C20.9148 13.5444 20.4208 14.1473 20.0534 14.8514L21.8266 15.7766C22.0672 15.3154 22.3839 14.9303 22.7807 14.6129L21.5313 13.0511ZM20.0379 14.8825C19.691 15.6078 19.522 16.3897 19.522 17.214H21.522C21.522 16.6703 21.6317 16.1855 21.8421 15.7455L20.0379 14.8825ZM19.522 17.214C19.522 18.0027 19.6743 18.7427 20.0076 19.4092L21.7964 18.5148C21.623 18.1679 21.522 17.7427 21.522 17.214H19.522ZM20.0366 19.463C20.3803 20.0567 20.8396 20.5868 21.3979 21.0569L22.6861 19.5271C22.2818 19.1866 21.9811 18.83 21.7674 18.461L20.0366 19.463ZM21.4224 21.0769C21.9667 21.5066 22.5968 21.8964 23.3048 22.2504L24.1992 20.4616C23.5899 20.1569 23.08 19.8374 22.6616 19.5071L21.4224 21.0769ZM23.3329 22.264C24.023 22.5824 24.7737 22.885 25.5836 23.1724L26.2524 21.2876C25.4917 21.0176 24.7983 20.7376 24.1711 20.448L23.3329 22.264ZM25.5714 23.168L27.3194 23.814L28.0127 21.938L26.2647 21.292L25.5714 23.168ZM27.3356 23.8199C28.3087 24.1604 29.216 24.5479 30.0587 24.9813L30.9733 23.2027C30.0427 22.7241 29.0499 22.3009 27.9964 21.9321L27.3356 23.8199ZM30.0688 24.9864C30.9009 25.4025 31.6008 25.891 32.1789 26.4468L33.5651 25.0052C32.8258 24.2943 31.9551 23.6935 30.9632 23.1976L30.0688 24.9864ZM32.1937 26.4608C32.752 26.9761 33.1934 27.5882 33.5196 28.3058L35.3404 27.4782C34.9066 26.5238 34.3094 25.6919 33.5503 24.9912L32.1937 26.4608ZM33.5302 28.3283C33.8591 29.0067 34.038 29.8159 34.038 30.78H36.038C36.038 29.5655 35.8115 28.4493 35.3298 27.4557L33.5302 28.3283ZM34.038 30.78C34.038 32.0184 33.7976 33.0263 33.3595 33.8399L35.1205 34.7881C35.7464 33.6257 36.038 32.2776 36.038 30.78H34.038ZM33.3595 33.8399C32.8907 34.7106 32.298 35.4081 31.5841 35.9489L32.7919 37.5431C33.75 36.8172 34.5253 35.8934 35.1205 34.7881L33.3595 33.8399ZM31.5841 35.9489C30.8521 36.5035 30.015 36.9186 29.0633 37.1905L29.6127 39.1135C30.789 38.7774 31.8519 38.2552 32.7919 37.5431L31.5841 35.9489ZM29.0571 37.1923C28.1035 37.4714 27.172 37.608 26.26 37.608V39.608C27.3746 39.608 28.4952 39.4406 29.6189 39.1117L29.0571 37.1923Z" fill="white"/>
<path d="M33.0268 48.8287V21.6207H41.8428C43.0082 21.6207 44.0975 21.8107 45.1108 22.1907C46.1495 22.5707 47.0488 23.1154 47.8088 23.8247C48.5688 24.5087 49.1642 25.3447 49.5948 26.3327C50.0508 27.2954 50.2788 28.3721 50.2788 29.5627C50.2788 30.7534 50.0508 31.8427 49.5948 32.8307C49.1642 33.7934 48.5688 34.6294 47.8088 35.3387C47.0488 36.0227 46.1495 36.5547 45.1108 36.9347C44.0975 37.3147 43.0082 37.5047 41.8428 37.5047H35.4588V48.8287H33.0268ZM41.9568 35.1867C42.7928 35.1867 43.5655 35.0474 44.2748 34.7687C44.9842 34.4647 45.5922 34.0594 46.0988 33.5527C46.6308 33.0461 47.0488 32.4507 47.3528 31.7667C47.6568 31.0827 47.8088 30.3481 47.8088 29.5627C47.8088 28.7774 47.6568 28.0427 47.3528 27.3587C47.0488 26.6494 46.6308 26.0541 46.0988 25.5727C45.5922 25.0661 44.9842 24.6734 44.2748 24.3947C43.5655 24.0907 42.7928 23.9387 41.9568 23.9387H35.4588V35.1867H41.9568Z" fill="white"/>
<path d="M33.0268 48.8287H32.0268V49.8287H33.0268V48.8287ZM33.0268 21.6207V20.6207H32.0268V21.6207H33.0268ZM45.1108 22.1907L44.7597 23.1271L44.7672 23.1299L45.1108 22.1907ZM47.8088 23.8247L47.1265 24.5558L47.1331 24.562L47.1399 24.568L47.8088 23.8247ZM49.5948 26.3327L48.6781 26.7323L48.6844 26.7467L48.6911 26.7608L49.5948 26.3327ZM49.5948 32.8307L48.6868 32.4116L48.682 32.4224L49.5948 32.8307ZM47.8088 35.3387L48.4778 36.082L48.4845 36.076L48.4911 36.0698L47.8088 35.3387ZM45.1108 36.9347L44.7672 35.9956L44.7597 35.9984L45.1108 36.9347ZM35.4588 37.5047V36.5047H34.4588V37.5047H35.4588ZM35.4588 48.8287V49.8287H36.4588V48.8287H35.4588ZM44.2748 34.7687L44.6405 35.6995L44.6547 35.6939L44.6688 35.6879L44.2748 34.7687ZM46.0988 33.5527L45.4092 32.8286L45.4003 32.837L45.3917 32.8456L46.0988 33.5527ZM47.3528 31.7667L46.439 31.3606L46.439 31.3606L47.3528 31.7667ZM47.3528 27.3587L46.4336 27.7527L46.439 27.7649L47.3528 27.3587ZM46.0988 25.5727L45.3917 26.2798L45.4094 26.2975L45.4279 26.3143L46.0988 25.5727ZM44.2748 24.3947L43.8809 25.3139L43.895 25.3199L43.9092 25.3255L44.2748 24.3947ZM35.4588 23.9387V22.9387H34.4588V23.9387H35.4588ZM35.4588 35.1867H34.4588V36.1867H35.4588V35.1867ZM34.0268 48.8287V21.6207H32.0268V48.8287H34.0268ZM33.0268 22.6207H41.8428V20.6207H33.0268V22.6207ZM41.8428 22.6207C42.8975 22.6207 43.867 22.7923 44.7597 23.1271L45.462 21.2544C44.328 20.8292 43.1188 20.6207 41.8428 20.6207V22.6207ZM44.7672 23.1299C45.6884 23.4668 46.4705 23.9435 47.1265 24.5558L48.4911 23.0937C47.6272 22.2873 46.6106 21.6746 45.4544 21.2516L44.7672 23.1299ZM47.1399 24.568C47.788 25.1513 48.3014 25.868 48.6781 26.7323L50.5115 25.9332C50.0269 24.8214 49.3497 23.8661 48.4778 23.0814L47.1399 24.568ZM48.6911 26.7608C49.0766 27.5747 49.2788 28.5026 49.2788 29.5627H51.2788C51.2788 28.2416 51.0251 27.0161 50.4986 25.9046L48.6911 26.7608ZM49.2788 29.5627C49.2788 30.6225 49.0767 31.567 48.6869 32.4117L50.5028 33.2498C51.025 32.1184 51.2788 30.8843 51.2788 29.5627H49.2788ZM48.682 32.4224C48.3051 33.265 47.7875 33.9908 47.1265 34.6077L48.4911 36.0698C49.3502 35.268 50.0233 34.3218 50.5076 33.2391L48.682 32.4224ZM47.1399 34.5954C46.4823 35.1872 45.6958 35.6559 44.7672 35.9956L45.4544 37.8739C46.6032 37.4536 47.6153 36.8582 48.4778 36.082L47.1399 34.5954ZM44.7597 35.9984C43.867 36.3332 42.8975 36.5047 41.8428 36.5047V38.5047C43.1188 38.5047 44.328 38.2963 45.462 37.8711L44.7597 35.9984ZM41.8428 36.5047H35.4588V38.5047H41.8428V36.5047ZM34.4588 37.5047V48.8287H36.4588V37.5047H34.4588ZM35.4588 47.8287H33.0268V49.8287H35.4588V47.8287ZM41.9568 36.1867C42.9058 36.1867 43.8039 36.0282 44.6405 35.6995L43.9092 33.838C43.3271 34.0666 42.6798 34.1867 41.9568 34.1867V36.1867ZM44.6688 35.6879C45.4859 35.3377 46.2026 34.8632 46.8059 34.2598L45.3917 32.8456C44.9817 33.2556 44.4824 33.5918 43.8809 33.8496L44.6688 35.6879ZM46.7885 34.2769C47.4171 33.6782 47.9105 32.9742 48.2666 32.1729L46.439 31.3606C46.1872 31.9273 45.8445 32.414 45.4092 32.8286L46.7885 34.2769ZM48.2666 32.1729C48.6303 31.3547 48.8088 30.481 48.8088 29.5627H46.8088C46.8088 30.2152 46.6834 30.8107 46.439 31.3606L48.2666 32.1729ZM48.8088 29.5627C48.8088 28.6445 48.6303 27.7707 48.2666 26.9526L46.439 27.7649C46.6834 28.3147 46.8088 28.9103 46.8088 29.5627H48.8088ZM48.272 26.9648C47.9156 26.1333 47.4165 25.4163 46.7697 24.8312L45.4279 26.3143C45.8452 26.6918 46.1821 27.1655 46.4337 27.7527L48.272 26.9648ZM46.8059 24.8656C46.1959 24.2556 45.4695 23.7897 44.6405 23.464L43.9092 25.3255C44.4988 25.5571 44.9884 25.8765 45.3917 26.2798L46.8059 24.8656ZM44.6688 23.4756C43.8249 23.1139 42.9169 22.9387 41.9568 22.9387V24.9387C42.6688 24.9387 43.3061 25.0675 43.8809 25.3139L44.6688 23.4756ZM41.9568 22.9387H35.4588V24.9387H41.9568V22.9387ZM34.4588 23.9387V35.1867H36.4588V23.9387H34.4588ZM35.4588 36.1867H41.9568V34.1867H35.4588V36.1867Z" fill="white"/>
</g>
<defs>
<filter id="filter0_d_143_5" x="0.0556641" y="0.0556641" width="67.8887" height="67.8887" filterUnits="userSpaceOnUse" color-interpolation-filters="sRGB">
<feFlood flood-opacity="0" result="BackgroundImageFix"/>
<feColorMatrix in="SourceAlpha" type="matrix" values="0 0 0 0 0 0 0 0 0 0 0 0 0 0 0 0 0 0 127 0" result="hardAlpha"/>
<feOffset dy="4"/>
<feGaussianBlur stdDeviation="2"/>
<feComposite in2="hardAlpha" operator="out"/>
<feColorMatrix type="matrix" values="0 0 0 0 0 0 0 0 0 0 0 0 0 0 0 0 0 0 0.25 0"/>
<feBlend mode="normal" in2="BackgroundImageFix" result="effect1_dropShadow_143_5"/>
<feBlend mode="normal" in="SourceGraphic" in2="effect1_dropShadow_143_5" result="shape"/>
</filter>
<filter id="filter1_d_143_5" x="12.988" y="10.184" width="41.2908" height="46.6448" filterUnits="userSpaceOnUse" color-interpolation-filters="sRGB">
<feFlood flood-opacity="0" result="BackgroundImageFix"/>
<feColorMatrix in="SourceAlpha" type="matrix" values="0 0 0 0 0 0 0 0 0 0 0 0 0 0 0 0 0 0 127 0" result="hardAlpha"/>
<feOffset dy="4"/>
<feGaussianBlur stdDeviation="2"/>
<feComposite in2="hardAlpha" operator="out"/>
<feColorMatrix type="matrix" values="0 0 0 0 0 0 0 0 0 0 0 0 0 0 0 0 0 0 0.25 0"/>
<feBlend mode="normal" in2="BackgroundImageFix" result="effect1_dropShadow_143_5"/>
<feBlend mode="normal" in="SourceGraphic" in2="effect1_dropShadow_143_5" result="shape"/>
</filter>
</defs>
</svg>
